<?xml version="1.0" standalone="no"?>
<!DOCTYPE svg PUBLIC "-//W3C//DTD SVG 20010904//EN"
 "http://www.w3.org/TR/2001/REC-SVG-20010904/DTD/svg10.dtd">
<svg version="1.0" xmlns="http://www.w3.org/2000/svg"
 width="330.000000pt" height="323.000000pt" viewBox="0 0 330.000000 323.000000"
 preserveAspectRatio="xMidYMid meet">

<g transform="translate(0.000000,323.000000) scale(0.100000,-0.100000)"
fill="#000000" stroke="none">
<path d="M150 1610 l0 -1470 255 0 255 0 0 610 0 610 95 0 c90 0 95 -1 100
-22 3 -13 48 -277 100 -588 52 -311 97 -575 100 -587 l5 -23 250 0 c138 0 250
3 250 8 0 4 -47 285 -104 624 l-103 618 43 25 c51 30 96 91 119 161 14 44 15
119 13 664 l-3 615 -27 50 c-32 60 -87 114 -148 146 l-45 24 -577 3 -578 3 0
-1471z m1137 1420 c27 -6 62 -22 78 -35 l30 -24 -65 -60 -65 -60 -426 -1 -426
0 -92 86 c-50 47 -91 90 -91 95 0 13 996 12 1057 -1z m-974 -139 l67 -65 0
-1216 0 -1215 -95 -95 -95 -95 0 1399 0 1399 28 -23 c15 -14 57 -54 95 -89z
m1142 9 c36 -72 31 -80 -20 -30 -42 41 -44 45 -28 62 9 10 18 18 19 18 2 0 15
-22 29 -50z m-29 -76 l64 -56 0 -61 0 -62 -92 92 -92 92 24 26 c13 14 26 25
28 25 3 0 33 -25 68 -56z m-761 -114 l100 -100 -60 0 -61 0 -64 68 c-36 37
-79 82 -95 100 l-29 32 55 0 54 0 100 -100z m172 8 c51 -51 93 -96 93 -100 0
-5 -24 -8 -52 -8 l-53 0 -92 92 c-51 51 -93 96 -93 100 0 5 24 8 52 8 l53 0
92 -92z m155 15 l78 -77 -22 -23 c-12 -13 -29 -23 -37 -23 -14 0 -110 91 -181
173 l-23 27 54 0 c54 0 54 0 131 -77z m136 44 l32 -33 -30 -29 -31 -29 -62 62
-62 62 61 0 c55 0 63 -3 92 -33z m81 16 c-7 -10 -15 -20 -16 -22 -4 -6 -33 20
-33 30 0 5 14 9 31 9 28 0 30 -2 18 -17z m-589 -263 c0 -28 -3 -50 -7 -50 -4
0 -47 39 -95 87 l-88 88 0 60 1 60 94 -98 c94 -96 95 -98 95 -147z m640 -316
c0 -306 -4 -554 -8 -552 -5 2 -48 44 -95 94 l-87 92 0 373 0 374 87 87 c48 49
91 88 95 88 5 0 8 -250 8 -556z m228 317 l-3 -53 -92 87 -93 87 0 61 0 62 96
-96 95 -95 -3 -53z m-868 -178 c0 -29 -4 -53 -8 -53 -4 0 -47 42 -95 94 l-87
94 0 56 0 56 95 -97 94 -98 1 -52z m870 2 l0 -60 -95 95 -95 95 0 60 0 60 95
-95 95 -95 0 -60z m-470 -135 l0 -360 -180 0 -180 0 0 360 0 360 180 0 180 0
0 -360z m-400 -37 c0 -29 -3 -53 -7 -53 -4 0 -47 39 -95 87 l-88 88 0 60 0 60
95 -95 95 -95 0 -52z m870 2 l0 -59 -42 39 c-157 146 -148 133 -148 198 l0 59
95 -89 94 -88 1 -60z m-870 -182 c0 -29 -2 -53 -4 -53 -2 0 -44 42 -94 93
l-92 92 1 60 0 60 94 -100 c94 -100 94 -100 95 -152z m870 2 l0 -60 -95 95
-95 95 0 60 0 60 95 -95 95 -95 0 -60z m-870 -134 c0 -8 -10 -25 -22 -38 l-22
-24 -73 73 -73 72 0 61 0 60 95 -95 c52 -52 95 -101 95 -109z m870 -34 l0 -58
-95 88 -95 88 0 58 0 58 95 -87 95 -88 0 -59z m-970 -81 l-30 -30 -30 29 c-27
26 -30 35 -30 89 l0 60 60 -59 60 -59 -30 -30z m970 -93 c0 -29 -3 -53 -7 -53
-4 0 -47 39 -95 87 l-88 88 0 60 0 60 95 -95 95 -95 0 -52z m-360 62 l95 -95
-385 0 -385 0 95 95 95 95 195 0 195 0 95 -95z m-681 -19 c9 -10 8 -16 -4 -26
-13 -11 -15 -8 -15 14 0 30 3 32 19 12z m997 -182 l-17 -37 -65 64 c-63 63
-64 64 -64 119 l0 55 82 -82 82 -82 -18 -37z m-786 -29 l95 -95 -60 0 -60 0
-95 95 -95 95 60 0 60 0 95 -95z m159 21 c65 -66 72 -76 62 -95 -8 -13 -21
-21 -39 -21 -21 0 -49 21 -122 95 l-95 95 60 0 61 0 73 -74z m124 46 l26 -27
-23 -30 -23 -29 -50 42 c-84 70 -85 72 -16 72 52 0 63 -4 86 -28z m67 24 c0
-11 -19 -15 -25 -6 -3 5 1 10 9 10 9 0 16 -2 16 -4z m320 -61 c35 -35 62 -66
59 -68 -49 -40 -46 -41 -140 39 -49 41 -91 79 -94 84 -4 6 17 10 52 10 l59 0
64 -65z m-113 -53 l100 -84 11 -76 c6 -42 9 -78 8 -79 -2 -2 -54 49 -117 112
-111 113 -125 135 -128 198 -1 35 -2 35 126 -71z m-167 81 c0 -3 45 -267 101
-585 l101 -578 -48 -56 c-27 -31 -63 -72 -81 -93 -17 -20 -33 -34 -35 -31 -2
3 -47 265 -99 583 l-96 579 71 93 c64 85 86 108 86 88z m-430 -250 l0 -58 -95
95 -95 95 0 60 1 60 94 -97 95 -97 0 -58z m744 -204 c4 -27 10 -57 13 -67 4
-9 -47 34 -114 96 -102 96 -122 119 -127 150 -3 20 -8 53 -12 72 -6 33 0 29
114 -84 114 -112 120 -121 126 -167z m-744 33 c0 -30 -4 -52 -8 -50 -5 2 -48
44 -95 94 l-87 92 0 53 0 54 95 -95 95 -95 0 -53z m0 -178 l0 -59 -95 95 -95
95 0 60 0 60 95 -96 95 -96 0 -59z m770 -34 c5 -19 12 -53 15 -75 l7 -40 -112
110 c-61 61 -115 119 -120 130 -4 11 -11 45 -15 75 l-7 55 111 -110 c80 -79
114 -120 121 -145z m-770 -137 c0 -29 -2 -53 -4 -53 -2 0 -44 42 -94 93 l-92
92 0 55 0 55 95 -95 95 -95 0 -52z m816 -123 l6 -65 -115 114 -114 113 -10 70
-9 69 117 -118 118 -118 7 -65z m-816 -55 l0 -60 -95 95 -95 95 0 60 0 60 95
-95 95 -95 0 -60z m849 -133 c6 -30 11 -62 11 -71 0 -9 -51 36 -114 98 -113
113 -115 115 -125 176 -6 34 -11 66 -11 71 0 5 51 -42 114 -105 107 -107 114
-116 125 -169z m-849 -39 c0 -29 -2 -53 -4 -53 -2 0 -44 42 -94 93 l-92 92 0
55 0 55 95 -95 95 -95 0 -52z m884 -171 c3 -25 5 -47 3 -48 -2 -2 -51 39 -109
91 -99 88 -107 97 -117 145 -6 28 -11 59 -11 68 0 10 45 -29 114 -97 104 -104
114 -117 120 -159z m-884 1 c0 -29 -3 -53 -7 -53 -4 0 -47 39 -95 87 l-88 88
0 60 0 60 95 -95 95 -95 0 -52z m-98 -81 l-56 -3 -60 60 -60 60 29 31 30 31
87 -88 87 -88 -57 -3z m888 58 l65 -59 -70 -1 -69 0 -53 52 c-29 29 -53 56
-53 61 0 4 10 21 22 37 l21 29 36 -29 c20 -16 65 -57 101 -90z m-1066 -58
c-41 -2 -61 1 -73 12 -13 14 -12 19 14 46 l29 30 43 -42 44 -43 -57 -3z m901
38 l39 -40 -60 0 c-78 0 -93 14 -57 52 15 15 29 28 33 28 3 0 24 -18 45 -40z"/>
<path d="M1975 3062 c-62 -21 -114 -61 -150 -112 -55 -80 -54 -66 -55 -736 l0
-621 30 -61 c35 -68 82 -115 149 -146 43 -20 65 -21 369 -24 l322 -3 -2 -357
-3 -357 -180 0 -180 0 -3 263 -2 262 -28 -7 c-15 -3 -126 -30 -247 -58 l-220
-50 -3 -340 -2 -340 30 -62 c36 -73 102 -135 167 -157 70 -24 907 -24 976 0
64 22 140 92 174 162 l28 57 0 625 0 625 -24 52 c-26 59 -102 135 -159 161
-31 14 -86 18 -362 22 l-325 5 0 355 0 355 180 0 180 0 3 -257 c2 -204 5 -258
15 -258 8 0 120 25 251 55 130 30 239 55 242 55 3 0 4 152 2 338 -3 321 -4
339 -25 384 -27 60 -101 134 -161 161 -46 21 -59 22 -492 24 -402 3 -450 1
-495 -15z m964 -43 c79 -35 79 -35 9 -106 l-62 -63 -431 0 -431 0 -63 64 -63
63 36 23 c20 12 49 26 64 30 15 5 223 9 462 9 415 1 437 0 479 -20z m142 -135
c12 -25 19 -47 17 -49 -2 -3 -24 15 -48 40 -37 37 -41 46 -30 60 17 20 32 7
61 -51z m-1144 -6 l63 -62 0 -596 0 -596 -65 -64 -66 -65 -19 25 c-45 57 -45
65 -45 705 l0 610 28 53 c15 28 31 52 34 52 4 0 36 -28 70 -62z m1173 -178 l0
-55 -95 95 -95 94 27 28 27 28 68 -67 c68 -67 68 -68 68 -123z m-833 15 l98
-94 -60 -1 -60 0 -87 87 c-49 48 -88 91 -88 95 0 5 22 8 49 8 48 0 51 -1 148
-95z m176 0 l99 -95 -59 0 -58 0 -92 86 c-51 47 -93 90 -93 95 0 5 24 9 53 9
l52 -1 98 -94z m149 18 c73 -72 76 -78 61 -95 -30 -33 -54 -21 -145 69 -49 48
-88 91 -88 95 0 5 21 8 47 8 46 0 50 -3 125 -77z m138 42 l34 -35 -24 -25
c-13 -14 -28 -25 -34 -25 -12 0 -116 100 -116 112 0 4 24 8 53 8 47 0 57 -4
87 -35z m90 26 c0 -5 -6 -14 -13 -20 -11 -8 -18 -6 -32 9 -18 20 -17 20 13 20
18 0 32 -4 32 -9z m-600 -268 c0 -29 -4 -53 -8 -53 -4 0 -47 42 -95 94 l-87
94 0 58 0 58 95 -99 c94 -100 94 -100 95 -152z m545 -313 l-95 -95 0 235 0
235 93 93 92 92 3 -232 2 -232 -95 -96z m335 313 c0 -29 -3 -53 -7 -53 -4 0
-49 42 -100 92 l-93 93 0 60 0 60 100 -100 100 -100 0 -52z m-880 -178 l0 -60
-95 95 -95 95 0 60 0 60 95 -95 95 -95 0 -60z m880 -3 l0 -54 -100 92 -100 92
0 61 0 62 100 -100 100 -100 0 -53z m-880 -169 c0 -29 -2 -53 -4 -53 -2 0 -44
42 -94 93 l-92 92 1 60 0 60 94 -100 c95 -100 95 -100 95 -152z m871 49 c-6
-2 -51 18 -101 43 l-90 47 0 56 0 57 100 -100 c55 -55 96 -101 91 -103z m-158
-9 l48 -48 -43 -11 c-42 -11 -44 -10 -80 24 l-36 34 26 24 c15 13 29 24 32 24
2 0 26 -21 53 -47z m-713 -218 l0 -60 -95 95 -95 95 0 60 0 60 95 -95 95 -95
0 -60z m821 187 c-7 -2 -23 6 -35 18 l-21 22 35 -18 c21 -10 30 -19 21 -22z
m-222 -26 l22 -23 -45 -12 c-55 -14 -56 -14 -56 1 0 13 39 58 50 58 4 0 17
-11 29 -24z m-599 -295 c0 -10 -9 -26 -20 -36 -20 -18 -22 -18 -95 55 l-75 74
0 61 1 60 94 -98 c52 -55 95 -107 95 -116z m-100 -115 l-30 -30 -30 29 c-27
26 -30 35 -30 89 l0 60 60 -59 60 -59 -30 -30z m801 49 c24 -9 53 -23 64 -31
19 -14 18 -17 -46 -79 l-67 -65 -408 0 -409 0 95 95 95 95 316 0 c258 0 323
-3 360 -15z m-874 -122 c-16 -16 -17 -15 -17 17 0 32 1 33 17 17 16 -16 16
-18 0 -34z m1025 -21 c11 -24 18 -45 16 -48 -2 -2 -24 16 -48 41 -37 37 -41
46 -30 60 17 21 37 4 62 -53z m-35 -64 c61 -61 63 -64 63 -115 0 -29 -3 -53
-7 -53 -4 0 -47 39 -95 87 l-88 87 27 28 c15 15 29 28 32 28 3 0 34 -28 68
-62z m-775 -103 l96 -95 -57 0 -56 0 -95 95 -95 95 55 0 55 0 97 -95z m178 0
l95 -95 -60 0 -60 0 -95 95 -95 95 60 0 60 0 95 -95z m154 16 c68 -69 78 -82
66 -95 -29 -36 -62 -20 -160 79 l-95 95 55 0 55 0 79 -79z m134 46 l32 -33
-30 -29 -31 -29 -62 62 -62 62 61 0 c55 0 63 -3 92 -33z m102 30 c0 -2 -8 -11
-18 -21 -18 -15 -20 -15 -37 4 -18 20 -18 20 18 20 21 0 37 -2 37 -3z m-707
-185 l-57 -3 -60 60 -60 60 29 31 29 30 88 -87 89 -88 -58 -3z m737 -409 l0
-558 -95 95 -95 95 0 375 -1 375 93 87 c51 48 94 88 96 88 1 0 2 -251 2 -557z
m143 460 c95 -96 97 -99 97 -145 0 -27 -3 -48 -7 -48 -4 0 -49 42 -100 92
l-93 93 0 52 c0 29 2 53 4 53 1 0 46 -44 99 -97z m-1038 -3 c45 -46 32 -52
-32 -14 -36 21 -42 28 -32 40 17 20 21 18 64 -26z m1135 -317 c0 -29 -3 -53
-7 -53 -4 0 -49 42 -100 92 l-93 93 0 60 0 60 100 -100 100 -100 0 -52z m-92
-27 c92 -93 92 -93 92 -145 0 -28 -3 -51 -7 -51 -4 0 -49 42 -100 92 l-93 93
0 52 c0 29 4 53 8 53 5 0 50 -42 100 -94z m-919 -82 l-86 -86 -81 44 c-45 23
-82 45 -82 48 0 4 293 75 325 79 5 0 -29 -38 -76 -85z m113 9 c13 -12 18 -30
18 -70 0 -29 -3 -53 -7 -53 -11 0 -83 73 -83 84 0 10 40 56 48 56 3 0 14 -7
24 -17z m898 -250 c0 -29 -3 -53 -7 -53 -4 0 -49 42 -100 92 l-93 93 0 60 0
60 100 -100 100 -100 0 -52z m-1204 166 l94 -51 0 -246 -1 -247 -63 -69 -63
-70 -26 40 c-14 21 -31 59 -36 84 -11 46 -16 610 -5 610 3 0 48 -23 100 -51z
m324 -164 l0 -60 -92 92 -92 92 29 31 29 30 63 -62 63 -62 0 -61z m0 -133 c0
-7 -7 -24 -17 -38 l-16 -25 -79 78 -78 78 0 55 0 55 95 -95 c52 -52 95 -100
95 -108z m788 104 c92 -93 92 -93 92 -145 0 -28 -3 -51 -7 -51 -4 0 -49 42
-100 92 l-93 93 0 52 c0 29 4 53 8 53 5 0 50 -42 100 -94z m-883 -226 l-29
-30 -33 32 c-30 29 -33 37 -33 92 l0 61 62 -62 62 -62 -29 -31z m970 -95 l-7
-48 -94 94 -94 94 0 55 0 55 101 -101 102 -102 -8 -47z m-365 70 l95 -95 -378
0 c-207 0 -377 3 -377 7 0 4 39 47 87 95 l88 88 195 0 195 0 95 -95z m-677
-19 c3 -8 -1 -22 -8 -33 -13 -17 -14 -16 -15 15 0 33 13 43 23 18z m939 -63
c43 -43 78 -81 78 -86 0 -5 -10 -22 -21 -39 l-22 -30 -63 63 c-63 62 -64 65
-64 116 0 29 3 53 7 53 4 0 43 -35 85 -77z m-722 -148 l94 -95 -60 0 -59 0
-95 95 -95 95 60 0 60 0 95 -95z m170 0 l95 -95 -60 0 -60 0 -95 95 -95 95 60
0 60 0 95 -95z m175 0 l100 -94 -60 -1 -60 0 -95 95 -95 95 55 0 55 0 100 -95z
m175 0 l95 -95 -60 0 -60 0 -95 95 -95 95 60 0 60 0 95 -95z m141 30 l68 -66
-32 -19 c-18 -11 -34 -20 -37 -20 -3 0 -43 38 -90 85 l-85 85 54 0 c53 0 56
-1 122 -65z m-808 -123 l-57 -3 -60 60 -60 60 29 31 29 30 88 -87 89 -88 -58
-3z m-158 48 c45 -46 32 -52 -32 -14 -36 21 -42 28 -32 40 17 20 21 18 64 -26z"/>
</g>
</svg>
